<?xml version="1.0" standalone="no"?>
<!DOCTYPE svg PUBLIC "-//W3C//DTD SVG 20010904//EN"
 "http://www.w3.org/TR/2001/REC-SVG-20010904/DTD/svg10.dtd">
<svg version="1.0" xmlns="http://www.w3.org/2000/svg"
 width="500.000000pt" height="500.000000pt" viewBox="0 0 500.000000 500.000000"
 preserveAspectRatio="xMidYMid meet">

<g transform="translate(0.000000,500.000000) scale(0.100000,-0.100000)"
fill="#000000" stroke="none">
<path d="M2354 4367 c-126 -48 -200 -129 -225 -247 l-11 -50 -144 0 c-141 0
-146 -1 -169 -25 -25 -24 -25 -27 -25 -195 0 -168 0 -171 25 -195 l24 -25 656
0 656 0 24 25 c25 24 25 27 25 193 0 232 8 222 -188 222 l-147 0 -24 76 c-20
65 -32 85 -80 134 -71 72 -142 102 -256 107 -65 2 -92 -1 -141 -20z m223 -211
c28 -31 33 -43 33 -87 0 -46 -4 -55 -39 -90 -43 -44 -88 -51 -141 -24 -74 38
-95 134 -43 195 34 41 58 51 113 46 35 -3 51 -11 77 -40z"/>
<path d="M1220 3940 c-40 -13 -69 -33 -106 -72 -91 -94 -84 30 -84 -1554 0
-1341 1 -1394 19 -1453 25 -81 77 -142 148 -178 48 -23 73 -28 157 -31 l99 -4
-7 43 c-4 24 -10 63 -13 85 l-5 41 -62 5 c-34 3 -76 13 -94 22 -66 34 -62 -68
-62 1463 0 1082 3 1393 13 1412 6 13 25 33 40 45 25 19 45 21 227 24 l200 4 0
84 0 84 -207 0 c-177 -1 -216 -3 -263 -20z"/>
<path d="M3272 3876 l3 -86 197 -3 c220 -2 234 -6 270 -78 17 -32 18 -120 18
-1412 0 -1495 3 -1418 -53 -1449 -12 -7 -56 -17 -96 -23 l-75 -11 -12 -69 c-7
-39 -13 -76 -13 -84 -1 -11 18 -12 97 -9 123 5 184 30 247 100 87 96 80 -31
80 1563 l0 1410 -26 56 c-32 68 -87 124 -148 153 -42 19 -67 21 -269 24 l-223
3 3 -85z"/>
<path d="M1830 3235 c-69 -69 -129 -125 -135 -125 -6 0 -33 23 -60 50 -54 55
-89 64 -118 32 -37 -40 -23 -73 67 -160 66 -65 90 -82 113 -82 24 0 56 27 192
164 151 153 163 167 157 193 -9 34 -32 53 -66 53 -19 0 -55 -30 -150 -125z"/>
<path d="M2230 3213 c-51 -19 -66 -77 -30 -113 20 -20 33 -20 628 -20 577 0
610 1 625 18 17 19 22 68 9 88 -21 32 -50 34 -634 33 -321 0 -590 -3 -598 -6z"/>
<path d="M1961 2781 c-8 -5 -70 -64 -138 -132 l-123 -122 -59 56 c-64 61 -95
71 -124 39 -36 -40 -23 -72 67 -161 120 -120 110 -122 301 70 94 94 156 165
160 181 5 21 1 33 -19 52 -27 28 -42 31 -65 17z"/>
<path d="M2196 2618 c-21 -30 -20 -61 3 -89 l19 -24 605 0 c581 0 606 1 626
19 26 24 28 77 3 99 -17 15 -75 17 -630 17 l-611 0 -15 -22z"/>
<path d="M1826 2080 l-132 -130 -54 55 c-31 31 -63 55 -75 55 -36 0 -65 -28
-65 -64 0 -28 13 -45 84 -114 118 -116 107 -118 300 71 91 89 158 162 161 177
4 18 0 34 -15 53 -39 50 -60 39 -204 -103z"/>
<path d="M2222 2060 c-47 -20 -54 -97 -10 -121 16 -9 185 -12 619 -13 574 -1
598 0 618 18 28 25 28 77 0 102 -20 18 -46 19 -613 21 -341 1 -601 -2 -614 -7z"/>
<path d="M1567 1548 c-26 -56 -37 -145 -43 -343 -10 -290 16 -507 63 -546 23
-19 126 11 245 71 100 51 322 185 391 237 l38 29 0 144 0 145 -118 68 c-138
81 -340 180 -420 208 -31 10 -75 19 -98 19 -38 0 -44 -3 -58 -32z"/>
<path d="M3210 1545 c-95 -39 -266 -125 -410 -207 l-94 -53 -1 -135 c-1 -74
-3 -141 -6 -149 -8 -27 433 -281 564 -325 26 -9 66 -16 88 -16 36 0 41 3 54
33 58 139 51 770 -9 862 -24 36 -81 33 -186 -10z"/>
<path d="M2386 1317 c-62 -35 -78 -74 -74 -189 3 -112 17 -139 88 -175 58 -30
123 -30 174 0 68 39 79 62 79 175 1 60 -4 111 -12 131 -32 75 -170 107 -255
58z"/>
</g>
</svg>
